<?xml version="1.0" standalone="no"?>
<!DOCTYPE svg PUBLIC "-//W3C//DTD SVG 20010904//EN"
 "http://www.w3.org/TR/2001/REC-SVG-20010904/DTD/svg10.dtd">
<svg version="1.0" xmlns="http://www.w3.org/2000/svg"
 width="170.000000pt" height="170.000000pt" viewBox="0 0 170.000000 170.000000"
 preserveAspectRatio="xMidYMid meet">
<metadata>
Created by potrace 1.14, written by Peter Selinger 2001-2017
</metadata>
<g transform="translate(0.000000,170.000000) scale(0.100000,-0.100000)"
fill="#000000" stroke="none">
<path d="M147 1233 c-2 -4 -28 -97 -58 -205 -34 -123 -59 -198 -66 -198 -9 0
-13 -18 -13 -55 l0 -55 115 0 114 0 -1 55 c-2 46 -5 55 -20 55 -13 0 -17 7
-16 25 1 14 5 25 8 26 71 8 82 5 91 -18 12 -33 12 -33 -11 -33 -18 0 -20 -7
-20 -55 l0 -55 130 0 130 0 0 55 c0 42 -3 55 -15 55 -8 0 -15 6 -15 14 0 7 -7
36 -15 62 -8 27 -32 112 -53 189 l-39 140 -121 3 c-66 1 -122 -1 -125 -5z
m132 -258 c1 -16 -5 -21 -26 -20 -16 0 -27 3 -27 8 1 4 7 36 14 70 l13 62 13
-50 c7 -27 13 -59 13 -70z"/>
<path d="M552 1185 c2 -44 6 -55 19 -55 15 0 17 -15 16 -149 -1 -133 -3 -150
-19 -154 -13 -4 -17 -16 -16 -56 l0 -51 144 0 144 0 0 55 0 55 -34 0 -33 0 2
48 1 47 63 2 c111 4 159 32 178 103 23 84 -6 161 -70 191 -36 16 -67 19 -219
19 l-178 0 2 -55z m272 -63 c15 -25 15 -72 0 -87 -31 -30 -49 -15 -49 43 -1
47 1 52 22 52 12 0 24 -4 27 -8z"/>
<path d="M1043 1185 c-1 -46 2 -55 16 -55 15 0 17 -15 17 -150 0 -133 -1 -150
-16 -150 -13 0 -17 -11 -18 -55 l-1 -55 130 0 129 0 0 55 c0 46 -3 55 -18 55
-15 0 -17 14 -17 150 0 137 1 150 17 150 15 0 18 9 18 55 l0 55 -128 0 -128 0
-1 -55z"/>
<path d="M1455 1093 c-71 -20 -96 -66 -86 -161 2 -25 53 -60 104 -72 60 -15
78 -26 70 -46 -8 -22 -64 -18 -70 5 -4 17 -13 20 -59 19 l-54 -2 2 -50 3 -50
46 -11 c25 -7 79 -12 120 -11 60 1 80 5 106 24 62 44 67 143 8 192 -9 7 -44
20 -78 29 -40 11 -63 22 -65 32 -5 25 36 31 56 8 12 -14 29 -19 65 -19 l48 0
-2 46 c-2 33 -8 48 -22 56 -22 11 -162 20 -192 11z"/>
<path d="M980 661 c0 -20 13 -41 21 -35 15 9 10 44 -6 44 -8 0 -15 -4 -15 -9z"/>
<path d="M1195 585 l0 -85 33 0 c34 0 34 0 27 39 -4 24 -2 42 4 46 12 7 15 -4
12 -52 -2 -31 0 -33 33 -33 29 0 34 3 30 18 -5 16 -5 16 5 0 8 -12 26 -16 72
-17 58 0 61 1 55 22 -3 12 -6 31 -6 43 0 11 -6 28 -13 38 -16 21 -83 28 -98
10 -16 -19 -2 -35 26 -30 14 3 27 0 30 -5 4 -5 -5 -9 -18 -9 -14 0 -30 -7 -37
-15 -16 -20 -28 -11 -23 18 6 33 -28 62 -56 47 -19 -10 -21 -8 -21 20 0 26 -4
30 -27 30 l-28 0 0 -85z m215 -39 c0 -3 -4 -8 -10 -11 -5 -3 -10 -1 -10 4 0 6
5 11 10 11 6 0 10 -2 10 -4z"/>
<path d="M1033 631 c-13 -20 -6 -98 10 -118 5 -7 24 -13 43 -13 27 0 32 4 31
20 -1 11 -7 20 -13 20 -7 0 -14 6 -16 13 -7 18 2 37 18 37 20 0 17 17 -6 33
-11 8 -17 17 -13 20 3 4 -5 7 -18 7 -13 0 -29 -8 -36 -19z"/>
<path d="M1483 631 c-13 -20 -6 -98 10 -118 5 -7 25 -13 44 -13 28 0 34 3 31
18 -2 9 -9 16 -15 15 -19 -4 -23 48 -4 55 23 10 24 30 1 37 -11 4 -20 11 -20
16 0 16 -35 9 -47 -10z"/>
<path d="M3 617 c-3 -5 -1 -19 5 -30 6 -12 18 -38 25 -58 14 -35 14 -36 -9
-31 -28 5 -33 -18 -9 -38 29 -24 63 4 95 76 17 36 30 69 30 74 0 15 -41 18
-55 3 -12 -11 -15 -11 -15 -1 0 14 -58 19 -67 5z m77 -42 c0 -8 -2 -15 -4 -15
-2 0 -6 7 -10 15 -3 8 -1 15 4 15 6 0 10 -7 10 -15z"/>
<path d="M180 622 c-39 -12 -54 -77 -24 -106 21 -22 77 -20 97 2 20 22 22 62
5 85 -14 17 -53 27 -78 19z m36 -79 c-12 -12 -29 15 -21 34 7 17 8 16 18 -5 5
-12 7 -25 3 -29z"/>
<path d="M284 616 c-2 -6 0 -33 4 -61 l7 -50 68 -3 c50 -1 66 1 61 9 -4 7 -8
32 -8 57 -1 36 -5 46 -22 52 -32 12 -50 -4 -37 -32 11 -25 7 -48 -8 -48 -5 0
-9 17 -9 39 0 34 -3 39 -26 44 -14 2 -27 0 -30 -7z"/>
<path d="M493 606 c17 -69 36 -101 61 -104 21 -3 27 2 33 25 l7 28 6 -25 c7
-32 57 -42 66 -13 3 10 12 31 20 46 19 38 18 54 -3 59 -37 9 -51 -2 -47 -35
l3 -32 -13 35 c-7 19 -16 34 -19 33 -4 -2 -14 -3 -22 -3 -9 0 -15 -9 -15 -24
0 -14 -4 -28 -10 -31 -6 -4 -7 6 -4 25 5 21 3 30 -7 31 -8 0 -25 2 -37 3 -19
2 -23 -1 -19 -18z"/>
<path d="M742 620 c-51 -21 -48 -100 5 -117 37 -12 58 -7 77 21 37 57 -18 121
-82 96z m38 -61 c0 -10 -4 -19 -10 -19 -5 0 -10 12 -10 26 0 14 4 23 10 19 6
-3 10 -15 10 -26z"/>
<path d="M849 627 c-1 -1 -2 -30 -4 -64 l-2 -62 73 0 c53 0 74 4 74 13 0 7 -3
16 -7 20 -4 4 -8 19 -9 34 -1 15 -2 32 -3 38 -2 17 -30 26 -49 15 -8 -5 -28
-5 -44 -1 -15 5 -28 8 -29 7z m76 -65 c-2 -9 -4 -24 -5 -32 -1 -10 -5 -8 -12
7 -11 24 -4 58 11 49 5 -4 8 -14 6 -24z"/>
<path d="M1605 617 c-27 -14 -35 -27 -35 -57 1 -44 23 -62 71 -58 33 2 45 8
47 21 3 15 -2 18 -24 15 -15 -2 -29 2 -31 8 -2 7 7 10 27 8 26 -3 30 0 30 20
0 40 -47 64 -85 43z m40 -27 c3 -5 1 -10 -4 -10 -6 0 -11 5 -11 10 0 6 2 10 4
10 3 0 8 -4 11 -10z"/>
</g>
</svg>
